<svg id="Layer_1" enable-background="new 0 0 500 500" viewBox="0 0 500 500" xmlns="http://www.w3.org/2000/svg" fill="#000000" width="30" height="30"><path clip-rule="evenodd" d="m106.876 235.39c8.148 0 14.779 6.637 14.779 14.784s-6.631 14.779-14.779 14.779c-8.147 0-14.772-6.631-14.772-14.779s6.625-14.784 14.772-14.784zm95.272-94.051c8.147 0 14.773 6.631 14.773 14.778 0 8.148-6.625 14.785-14.773 14.785-8.153 0-14.778-6.637-14.778-14.785 0-8.147 6.625-14.778 14.778-14.778zm95.385 94.051c8.147 0 14.778 6.637 14.778 14.784s-6.631 14.779-14.778 14.779c-8.148 0-14.779-6.631-14.779-14.779s6.631-14.784 14.779-14.784zm95.26-94.051c8.147 0 14.778 6.631 14.778 14.778 0 8.148-6.631 14.785-14.778 14.785s-14.779-6.637-14.779-14.785c.001-8.147 6.632-14.778 14.779-14.778zm-285.917 137.271c22.154 0 35.622-24.253 24.436-42.967l55.993-55.285c9.105 5.602 20.59 5.607 29.693-.006l56.087 55.309c-11.161 18.758 2.336 42.949 24.448 42.949 22.086 0 35.646-24.16 24.43-42.967l55.987-55.285c18.809 11.556 43.273-1.994 43.273-24.242 0-15.675-12.755-28.43-28.43-28.43-22.081 0-35.648 24.152-24.43 42.961l-55.993 55.285c-9.103-5.609-20.596-5.6-29.698.006l-56.087-55.309c11.184-18.753-2.326-42.943-24.436-42.943-22.072 0-35.644 24.124-24.436 42.961l-55.993 55.285c-18.764-11.545-43.273 1.961-43.273 24.241-.001 15.676 12.754 28.437 28.429 28.437zm263.699 138.215v-189.058h44.807v189.058zm-95.319 0v-101.997h44.801v101.998h-44.801zm-95.325 0v-172.533h44.813v172.533zm-95.314 0v-81.662h44.801v81.662zm58.459-27.946h23.197v27.946h-23.197zm95.325 0h23.197v27.946h-23.197zm95.314 0h23.203v27.946h-23.203zm-273.127-13.657h10.371v-46.884c0-3.77 3.062-6.832 6.826-6.832h58.465c3.764 0 6.826 3.062 6.826 6.832v46.884h23.197v-137.756c0-3.782 3.062-6.832 6.832-6.832h58.465c3.77 0 6.832 3.05 6.832 6.832v137.755h23.197v-67.226c0-3.77 3.056-6.826 6.826-6.826h58.459c3.782 0 6.832 3.056 6.832 6.826v67.226h23.203v-154.28c0-3.77 3.062-6.826 6.832-6.826h58.459c3.77 0 6.832 3.056 6.832 6.826v154.28h10.366c9.734 0 17.657-7.917 17.657-17.657v-256.732c0-9.729-7.923-17.658-17.657-17.658h-378.82c-9.729 0-17.663 7.929-17.663 17.658v256.732c0 9.74 7.934 17.658 17.663 17.658zm407.921 41.603h-39.469v-27.946h10.366c17.262 0 31.315-14.047 31.315-31.315v-256.732c0-17.268-14.053-31.315-31.315-31.315h-378.818c-17.262 0-31.315 14.047-31.315 31.315v256.732c0 17.268 14.053 31.315 31.315 31.315h10.371v27.946h-39.468c-3.77 0-6.826 3.056-6.826 6.826 0 3.776 3.056 6.832 6.826 6.832h437.017c3.764 0 6.826-3.056 6.826-6.832.001-3.77-3.062-6.826-6.825-6.826z" fill-rule="evenodd"/></svg>