<?xml version="1.0"?>
<svg xmlns="http://www.w3.org/2000/svg" id="Layer_1" data-name="Layer 1" viewBox="0 0 512 512" fill="#000000" width="30" height="30"><path d="M407.107,226.887V193.975l-94.489,104.9a6,6,0,0,1-7.851.933l-99.709-68.375L104.84,341.9a6,6,0,1,1-8.887-8.062L199.688,219.492a6,6,0,0,1,7.837-.917l99.7,68.364L399.406,184.6H364.815a6,6,0,0,1,0-12h48.292a6,6,0,0,1,6,6v48.292a6,6,0,0,1-12,0ZM501.308,506a6,6,0,0,1-6,6H16.692a6,6,0,0,1-6-6V163.98a6,6,0,0,1,12,0V500H66.5V407.508a6,6,0,0,1,6-6h55.8a6,6,0,0,1,6,6V500H170.23V309.365a6,6,0,0,1,6-6h55.8a6,6,0,0,1,6,6V500h35.933V358.436a6,6,0,0,1,6-6h55.8a6,6,0,0,1,6,6V500H377.7V260.293a6,6,0,0,1,6-6h55.8a6,6,0,0,1,6,6V500h49.8A6,6,0,0,1,501.308,506ZM389.7,500h43.8V266.293H389.7Zm-103.736,0h43.8V364.436h-43.8ZM182.23,500h43.8V315.365h-43.8ZM78.5,500h43.8V413.508H78.5ZM45.185,103.719H66.991c-.043-1.221-.073-2.445-.073-3.673a100.047,100.047,0,0,1,200.093,0c0,1.228-.03,2.452-.073,3.673h21.807a6,6,0,0,1,0,12H265.791A98.917,98.917,0,0,1,249.6,156.484l8.079,8.08a12.468,12.468,0,0,1,13.707,2.635l38.606,38.606a26.351,26.351,0,0,1-37.265,37.266l-38.607-38.606a12.469,12.469,0,0,1-2.635-13.707l-8.092-8.092A100.073,100.073,0,0,1,68.138,115.719H45.185a6,6,0,0,1,0-12Zm256.32,110.57-27.361-27.36-20.3,20.3,27.361,27.361a14.352,14.352,0,0,0,20.3-20.3Zm-39.254-38.6L242.6,195.333a.47.47,0,0,0,0,.647l2.76,2.761,20.3-20.3-2.761-2.76a.469.469,0,0,0-.647,0Zm-20.083-9.661q-2.148,2.441-4.461,4.765t-4.767,4.459l6.389,6.389,9.226-9.226ZM253.6,115.719H224.038L219.47,132.77a6,6,0,0,1-10.992,1.447l-17.5-30.319L172.7,147.6a6,6,0,0,1-5.533,3.685c-.134,0-.269,0-.4-.014a6,6,0,0,1-5.394-4.433L140.876,70.352l-24.461,42.367a6,6,0,0,1-5.2,3H80.325a88.044,88.044,0,0,0,173.278,0Zm-174.6-12h28.748l29.972-51.912a6,6,0,0,1,10.992,1.447l19.692,73.5,16.165-38.661a6,6,0,0,1,10.732-.686l16.319,28.267,2.011-7.506a6,6,0,0,1,5.8-4.447h35.487c.05-1.221.09-2.444.09-3.673a88.047,88.047,0,0,0-176.093,0C78.918,101.275,78.958,102.5,79.007,103.719Z"/></svg>
