<svg id="Line" viewBox="0 0 32 32" xmlns="http://www.w3.org/2000/svg"><path d="m10 21.5c-.2763672 0-.5.2236328-.5.5v8c0 .2763672.2236328.5.5.5h12c.2763672 0 .5-.2236328.5-.5v-8c0-.2763672-.2236328-.5-.5-.5zm11.5 8h-11v-7h11z"/><path d="m12 28.5h8c.2763672 0 .5-.2236328.5-.5s-.2236328-.5-.5-.5h-.5v-3.5c0-.2763672-.2236328-.5-.5-.5h-2c-.2763672 0-.5.2236328-.5.5v.5h-1.5c-.2763672 0-.5.2236328-.5.5v.5h-1.5c-.2763672 0-.5.2236328-.5.5v1.5h-.5c-.2763672 0-.5.2236328-.5.5s.2236328.5.5.5zm5.5-4h1v3h-1zm-2 1h1v2h-1zm-2 1h1v1h-1z"/><path d="m24 22.5c.0751953 0 .1513672-.0166016.2226562-.0527344l2.2900391-1.1396484c.1699219-.0839844.2773438-.2578125.2773438-.4472656v-13.7202149c0-.1894531-.1074219-.362793-.2763672-.4472656l-10.2900391-5.1401367c-.1416016-.0703125-.3085938-.0693359-.4482422.0004883l-1.4296875.7202148c-.2470703.1245117-.3457031.425293-.2216797.671875.125.2470703.4257812.3427734.6708984.2216797l1.2060547-.6074219 1.9684448.9832153-8.8345337 4.7515869-2.3076782-1.1537476 4.3866577-2.1933594c.2470703-.1235352.3466797-.4238281.2236328-.6708984-.1240234-.2475586-.4228516-.3461914-.6708984-.2236328l-5.2802734 2.6401367c-.1689453.0849609-.2763672.2578125-.2763672.4472656v13.7202148c0 .1894531.1074219.3632812.2773438.4472656l2.2900391 1.1396484c.0712891.0361328.1474609.0527344.2226562.0527344.1835938 0 .3603516-.1015625.4472656-.2773438.1230469-.2470703.0224609-.546875-.2246094-.6699219l-2.0126953-1.0019531v-12.6006467l2.4296875 1.2147827v6.5450439c0 .1879883.1054688.3603516.2734375.4458008.1689453.0859375.3710938.0693359.5214844-.0419922l1.1943359-.871582 1.5166016 2.4501953c.0927734.1503906.2548828.2373047.4248047.2373047.0458984 0 .0917969-.0058594.1367188-.0195312.2148438-.0605469.3632812-.2568359.3632812-.4804688v-6.0496826l2.4296875 1.2147217v7.4052734c0 .2763672.2236328.5.5.5s.5-.2236328.5-.5v-7.4052734l9.2900391-4.6445923v12.600647l-2.0126953 1.0019531c-.2470703.1230469-.3476562.4228516-.2246094.6699219.0869141.1757812.2636719.2773438.4472656.2773438zm-8-10.7734375-2.3417358-1.1707764 8.8716431-4.7350464 2.6425781 1.3200073-9.1724854 4.5858154zm3.0646362-7.6367188 2.3685913 1.1831665-8.8712158 4.7347412-2.3326416-1.1661987zm-6.9943237 11.5820312-.8759766-1.4150391c-.0732422-.1181641-.1923828-.2006836-.3291016-.2275391-.1337891-.0268555-.2783203.0043945-.390625.0869141l-.8349609.6098633v-5.0612183l2.4306641 1.21521z"/><path d="m22.7558594 20.0185547 1.7148438-.8574219c.2470703-.1240234.3466797-.4238281.2236328-.6708984-.1240234-.2470703-.4228516-.3466797-.6708984-.2236328l-1.7148438.8574219c-.2470703.1240234-.3466797.4238281-.2236328.6708984.0878906.1748047.2646484.2763672.4472656.2763672.0751953 0 .1513672-.0166016.2236328-.0527344z"/><circle cx="12.78" cy="3.607" r=".5"/></svg>