<svg id="Layer_1" enable-background="new 0 0 500 500" viewBox="0 0 500 500" xmlns="http://www.w3.org/2000/svg"  fill="#000000" width="30" height="30"><path clip-rule="evenodd" d="m394.394 334.235v-62.008l-53.677 31.007v62.009zm-120.521 0 53.733 31.007v-62.009l-53.733-31.007zm60.288-104.356 53.677 31.002-53.677 31.007-53.733-31.007zm73.344 31.001v77.136c0 2.342-1.233 4.51-3.306 5.681l-66.788 38.56c-2.049 1.189-4.531 1.175-6.555 0l-66.788-38.56c-2.017-1.171-3.306-3.339-3.306-5.681v-77.136c0-2.342 1.289-4.499 3.306-5.67l66.788-38.577c2.017-1.171 4.538-1.171 6.555 0l66.788 38.577c2.073 1.171 3.306 3.328 3.306 5.67zm-241.658-31.001-53.677 31.002 53.677 31.007 53.677-31.007zm60.233 104.356-53.677 31.007v-62.009l53.677-31.007zm-120.465 0v-62.008l53.677 31.007v62.009zm-13.111 3.782v-77.137c0-2.342 1.233-4.499 3.25-5.67l66.844-38.577c2.017-1.171 4.482-1.171 6.555 0l66.788 38.577c2.017 1.171 3.25 3.328 3.25 5.67v77.136c0 2.342-1.233 4.51-3.25 5.681l-66.788 38.56c-2.028 1.177-4.518 1.182-6.555 0l-66.844-38.56c-2.017-1.17-3.25-3.338-3.25-5.68zm157.5-253.245-53.677 30.996 53.677 31.007 53.677-31.007zm60.233 104.351v-62.003l-53.677 31.007v62.003zm-120.465 0 53.677 31.007v-62.003l-53.677-31.007zm-9.861 9.463 66.788 38.565c2.065 1.161 4.512 1.18 6.555 0l66.844-38.565c2.017-1.171 3.25-3.339 3.25-5.676v-77.142c0-2.331-1.233-4.499-3.25-5.67l-66.844-38.565c-2.017-1.171-4.482-1.171-6.555 0l-66.788 38.565c-2.017 1.171-3.25 3.339-3.25 5.67v77.142c0 2.337 1.233 4.505 3.25 5.676zm205.91 216.298-.28 2.264-14.344 42.695c-.952 2.734-3.474 4.466-6.219 4.466-4.443 0-7.617-4.413-6.219-8.64l7.9-23.572c-84.823 54.5-197.289 43.07-269.56-29.192-77.322-77.31-84.773-200.369-17.369-286.246 2.241-2.846 6.388-3.345 9.245-1.109 2.802 2.241 3.306 6.354 1.064 9.2-63.314 80.666-56.31 196.267 16.305 268.888 68.749 68.749 175.99 78.689 255.665 25.841l-28.183-3.636c-3.586-.459-6.107-3.748-5.659-7.329.448-3.592 3.754-6.135 7.34-5.664l44.6 5.737v.006c2.218.442 2.167.629 3.754 1.793l.504.538.112.123c.761 1.255 1.344 2.163 1.344 3.837zm34.402-31.539c-2.245 2.86-6.315 3.324-9.189 1.109-2.857-2.236-3.362-6.359-1.121-9.211 63.37-80.655 56.366-196.25-16.305-268.882-68.693-68.749-175.99-78.694-255.665-25.835l28.239 3.625c3.586.465 6.107 3.748 5.659 7.34-.47 3.604-3.822 6.133-7.34 5.659l-44.656-5.749c-1.283-.325-2.054-.403-3.306-1.429-.112-.106-.224-.23-.392-.342l-.56-.656c-.467-.093-1.457-2.622-1.457-4.102l.336-2.051 14.344-42.661c1.121-3.435 4.875-5.289 8.293-4.135s5.267 4.869 4.146 8.303l-7.9 23.561c84.549-54.349 197.113-43.238 269.56 29.197 77.323 77.318 84.775 200.382 17.314 286.259z" fill-rule="evenodd"/></svg>