<svg id="Layer_1" enable-background="new 0 0 512 512" viewBox="0 0 512 512" xmlns="http://www.w3.org/2000/svg" fill="#000000" width="30" height="30"><path d="m405.271 110.891c-4.418 0-8 3.582-8 8v99.709c0 4.418 3.582 8 8 8h35.083c4.418 0 8-3.582 8-8v-99.709c0-4.418-3.582-8-8-8zm27.083 99.709h-19.083v-83.709h19.083zm69.264-156.272h-35.082c-4.418 0-8 3.582-8 8v156.272c0 4.418 3.582 8 8 8h35.082c4.418 0 8-3.582 8-8v-156.272c0-4.419-3.582-8-8-8zm-8 156.272h-19.082v-140.272h19.082zm-199.675-108.519 61.264-79.654c2.571-3.341 7.292-4.115 10.795-1.768l56.021 37.542 44.334-40.934-5.851-.275c-4.413-.208-7.822-3.954-7.615-8.368.208-4.413 3.95-7.819 8.368-7.615l25.826 1.216c2.304.108 4.448 1.206 5.884 3.011s2.022 4.142 1.61 6.411l-4.622 25.438c-.702 3.863-4.07 6.571-7.862 6.571-.475 0-.956-.042-1.439-.13-4.347-.79-7.23-4.954-6.441-9.301l.532-2.928-46.509 42.941c-2.718 2.51-6.805 2.829-9.88.768l-55.038-36.883-56.694 73.713c-1.576 2.048-3.948 3.123-6.347 3.123-1.702 0-3.417-.541-4.872-1.659-3.502-2.694-4.157-7.717-1.464-11.219zm101.145 280.401c-1.88-1.881-4.381-2.917-7.043-2.917h-.001c-2.662 0-5.163 1.035-7.042 2.915l-.058.058-11.158-11.158c13.154-18.966 20.876-41.972 20.876-66.75 0-29.928-11.261-57.271-29.761-78.03h18.189c4.418 0 8-3.582 8-8v-128.833c0-4.418-3.582-8-8-8h-35.083c-4.418 0-8 3.582-8 8v115.672c-3.287-2.087-6.685-4.013-10.181-5.772v-42.177c0-4.418-3.582-8-8-8h-35.083c-4.418 0-8 3.582-8 8v29.745c-.499-.006-.996-.019-1.496-.019-8.55 0-16.887.927-24.923 2.671-15.207-11.079-31.953-19.171-49.656-24.08 27.495-14.796 46.229-43.85 46.229-77.2 0-48.307-39.3-87.607-87.606-87.607s-87.606 39.3-87.606 87.606c0 33.389 18.778 62.472 46.326 77.252-61.573 17.162-108.599 71.66-113.576 138.006-.38 5.07 1.375 10.104 4.813 13.81s8.327 5.831 13.412 5.831h136.698c9.056 55.8 57.572 98.54 115.89 98.54 24.779 0 47.784-7.722 66.75-20.877l11.158 11.157-.057.057c-1.881 1.88-2.917 4.382-2.917 7.045 0 2.662 1.036 5.164 2.916 7.042l75.449 75.449c5.856 5.857 13.667 9.083 21.994 9.083s16.138-3.226 21.994-9.083c5.857-5.857 9.083-13.668 9.083-21.994s-3.226-16.137-9.083-21.994zm-43.081-284.715h19.083v112.833h-19.083zm-61.264 67.723h19.083v27.567c-6.154-2.023-12.53-3.553-19.083-4.537zm-205.058-76.884c0-39.484 32.122-71.606 71.606-71.606s71.606 32.123 71.606 71.607-32.123 71.606-71.606 71.606-71.606-32.123-71.606-71.607zm-65.026 218.898c-.844 0-1.381-.388-1.683-.714s-.649-.891-.586-1.73c5.42-72.251 66.433-128.847 138.902-128.847 25.44 0 49.827 6.809 71.37 19.805-42.695 17.591-72.829 59.645-72.829 108.612 0 .961.013 1.919.037 2.875h-135.211zm151.174-2.874c0-55.92 45.494-101.415 101.415-101.415 55.92 0 101.414 45.494 101.414 101.415s-45.494 101.415-101.414 101.415c-55.921-.001-101.415-45.495-101.415-101.415zm180.739 86.485c2.488-2.284 4.877-4.673 7.16-7.16l9.896 9.896-7.16 7.16zm35.471 6.949 9.729 9.729-21.361 21.362-9.729-9.729zm71.177 92.54c-2.834 2.835-6.627 4.396-10.68 4.396s-7.846-1.561-10.681-4.396l-50.135-50.135 21.361-21.362 50.136 50.136c2.835 2.835 4.396 6.628 4.396 10.681s-1.561 7.845-4.397 10.68zm-185.973-274.619c-48.879 0-88.646 39.766-88.646 88.646s39.767 88.646 88.646 88.646 88.646-39.766 88.646-88.646-39.767-88.646-88.646-88.646zm0 161.291c-40.057 0-72.646-32.589-72.646-72.646s32.589-72.646 72.646-72.646 72.646 32.589 72.646 72.646-32.589 72.646-72.646 72.646z"/></svg>