<svg id="Layer_1" enable-background="new 0 0 512 512" viewBox="0 0 512 512" xmlns="http://www.w3.org/2000/svg" fill="#000000" width="30" height="30"><path d="m288.427 283.109h-55.895c-4.418 0-8 3.582-8 8v178.405c0 4.418 3.582 8 8 8h55.895c4.418 0 8-3.582 8-8v-178.405c0-4.418-3.581-8-8-8zm-8 178.405h-39.895v-162.405h39.895zm111.788-155.109h-55.895c-4.418 0-8 3.582-8 8v155.109c0 4.418 3.582 8 8 8h55.895c4.418 0 8-3.582 8-8v-155.109c0-4.418-3.582-8-8-8zm-8 155.109h-39.895v-139.109h39.895zm111.785-251.725h-55.894c-4.418 0-8 3.582-8 8v251.725c0 4.418 3.582 8 8 8h55.894c4.418 0 8-3.582 8-8v-251.725c0-4.418-3.582-8-8-8zm-8 251.724h-39.894v-235.724h39.894zm-303.36-109.201h-55.894c-4.418 0-8 3.582-8 8v109.201c0 4.418 3.582 8 8 8h55.894c4.418 0 8-3.582 8-8v-109.201c0-4.418-3.581-8-8-8zm-8 109.201h-39.894v-93.201h39.894zm249.658-307.296c-.386-4.401 2.869-8.282 7.271-8.669l33.786-2.963c2.387-.209 4.747.664 6.423 2.381 1.676 1.716 2.493 4.094 2.226 6.478l-3.769 33.705c-.457 4.089-3.92 7.112-7.94 7.112-.297 0-.597-.017-.899-.051-4.391-.491-7.552-4.448-7.061-8.839l1.214-10.861-87.6 88.349c-2.125 2.144-5.276 2.909-8.147 1.978l-99.753-32.33-100.44 78.209c-1.46 1.137-3.191 1.688-4.91 1.688-2.382 0-4.74-1.06-6.317-3.085-2.714-3.486-2.089-8.513 1.397-11.228l103.787-80.814c2.094-1.63 4.86-2.115 7.381-1.298l99.106 32.12 84.939-85.665-12.026 1.055c-4.399.38-8.282-2.871-8.668-7.272zm-192.511 2.647c0-4.418 3.582-8 8-8h14.72c4.418 0 8 3.582 8 8s-3.582 8-8 8h-14.72c-4.418 0-8-3.582-8-8zm45.332 0c0-4.418 3.582-8 8-8h114.544c4.418 0 8 3.582 8 8s-3.582 8-8 8h-114.544c-4.418 0-8-3.582-8-8zm-45.332-40.857c0-4.418 3.582-8 8-8h14.72c4.418 0 8 3.582 8 8s-3.582 8-8 8h-14.72c-4.418 0-8-3.582-8-8zm45.332 0c0-4.418 3.582-8 8-8h114.544c4.418 0 8 3.582 8 8s-3.582 8-8 8h-114.544c-4.418 0-8-3.582-8-8zm-45.332-40.858c0-4.418 3.582-8 8-8h14.72c4.418 0 8 3.582 8 8s-3.582 8-8 8h-14.72c-4.418 0-8-3.582-8-8zm45.332 0c0-4.418 3.582-8 8-8h114.544c4.418 0 8 3.582 8 8s-3.582 8-8 8h-114.544c-4.418 0-8-3.582-8-8zm-93.672 78.061c0-4.418-3.582-8-8-8h-72.724v-72.723c0-4.418-3.582-8-8-8-48.921 0-88.723 39.802-88.723 88.723s39.801 88.724 88.723 88.724c48.923 0 88.724-39.802 88.724-88.724zm-88.724 72.724c-40.099 0-72.723-32.624-72.723-72.724 0-37.398 28.372-68.293 64.723-72.286v72.286c0 4.418 3.582 8 8 8h72.287c-3.994 36.352-34.889 64.724-72.287 64.724zm30.001-94.725h80.724c4.418 0 8-3.582 8-8 0-48.922-39.801-88.724-88.724-88.724-4.418 0-8 3.582-8 8v80.724c0 4.418 3.582 8 8 8zm8-80.287c33.725 3.706 60.582 30.562 64.287 64.287h-64.287z"/></svg>